<?xml version="1.0" encoding="UTF-8" standalone="no"?>
<!-- Created with Inkscape (http://www.inkscape.org/) -->

<svg
   xmlns:dc="http://purl.org/dc/elements/1.1/"
   xmlns:cc="http://creativecommons.org/ns#"
   xmlns:rdf="http://www.w3.org/1999/02/22-rdf-syntax-ns#"
   xmlns:svg="http://www.w3.org/2000/svg"
   xmlns="http://www.w3.org/2000/svg"
   xmlns:sodipodi="http://sodipodi.sourceforge.net/DTD/sodipodi-0.dtd"
   xmlns:inkscape="http://www.inkscape.org/namespaces/inkscape"
   width="210mm"
   height="297mm"
   viewBox="0 0 210 297"
   version="1.1"
   id="svg8"
   sodipodi:docname="drawing-chefhat.svg"
   inkscape:export-filename="/home/riansyah/Pictures/data-frozen-food/v1-logo.png"
   inkscape:export-xdpi="96"
   inkscape:export-ydpi="96"
   inkscape:version="0.92.3 (2405546, 2018-03-11)">
  <defs
     id="defs2" />
  <sodipodi:namedview
     id="base"
     pagecolor="#ffffff"
     bordercolor="#666666"
     borderopacity="1.0"
     inkscape:pageopacity="0.0"
     inkscape:pageshadow="2"
     inkscape:zoom="0.35"
     inkscape:cx="-318.06604"
     inkscape:cy="741.1049"
     inkscape:document-units="mm"
     inkscape:current-layer="layer1"
     showgrid="false"
     inkscape:window-width="1366"
     inkscape:window-height="713"
     inkscape:window-x="0"
     inkscape:window-y="27"
     inkscape:window-maximized="1" />
  <metadata
     id="metadata5">
    <rdf:RDF>
      <cc:Work
         rdf:about="">
        <dc:format>image/svg+xml</dc:format>
        <dc:type
           rdf:resource="http://purl.org/dc/dcmitype/StillImage" />
        <dc:title />
      </cc:Work>
    </rdf:RDF>
  </metadata>
  <g
     inkscape:label="Layer 1"
     inkscape:groupmode="layer"
     id="layer1">
    <flowRoot
       xml:space="preserve"
       id="flowRoot3809"
       style="fill:black;fill-opacity:1;stroke:none;font-family:sans-serif;font-style:normal;font-weight:normal;font-size:40px;line-height:1.25;letter-spacing:0px;word-spacing:0px"><flowRegion
         id="flowRegion3811"><rect
           id="rect3813"
           width="1260"
           height="865.71429"
           x="-348.57144"
           y="116.8054" /></flowRegion><flowPara
         id="flowPara3815" /></flowRoot>    <g
       id="g879"
       inkscape:export-filename="/home/riansyah/Pictures/data-frozen-food/v1.png"
       inkscape:export-xdpi="96"
       inkscape:export-ydpi="96">
      <rect
         y="5.9583335"
         x="2.2678571"
         height="283.48215"
         width="210.15475"
         id="rect866"
         style="fill:#ffffff;stroke:#000000;stroke-width:1.5;stroke-opacity:1;stroke-miterlimit:4;stroke-dasharray:none" />
      <ellipse
         ry="99.785713"
         rx="100.54166"
         cy="172.26785"
         cx="105.83334"
         id="path39"
         style="fill:#f9f9f9;stroke:#000000;stroke-width:1.5;stroke-opacity:1" />
      <path
         style="fill:#1b1b1b;stroke-width:0.1467182"
         d="m 126.45559,105.35817 c -8.87203,-0.55757 -14.3356,-1.63915 -21.07272,-4.17163 -2.92648,-1.10006 -5.449324,-2.19977 -6.720187,-2.929345 -1.438899,-0.826042 -2.899425,-2.190675 -3.462178,-3.234857 -1.171362,-2.173469 -0.856684,-4.582541 1.21086,-9.269933 1.419876,-3.219042 2.231205,-5.341377 2.404125,-6.288902 0.329663,-1.806377 0.124003,-7.711717 -0.3886,-11.158327 -0.336913,-2.265323 -0.952294,-4.989013 -1.40289,-6.209228 -0.209209,-0.566535 -0.799561,-1.950776 -1.311892,-3.076089 -1.125494,-2.472094 -1.507672,-3.605263 -1.911947,-5.668983 -1.839143,-9.388337 0.524499,-18.511834 6.041006,-23.317873 2.217203,-1.931654 4.972023,-3.466226 8.192753,-4.563784 3.70691,-1.26323 6.30845,-1.703828 10.07666,-1.706589 4.20164,-0.0033 5.46896,0.300343 11.10228,2.658036 1.94949,0.815917 4.18139,1.650971 4.95977,1.855684 1.36926,0.360114 1.58143,0.375456 6.53245,0.472227 4.4168,0.08633 5.28218,0.138296 6.32238,0.379627 2.25931,0.524173 3.72264,1.400548 4.84715,2.90293 l 0.56868,0.759767 1.09806,-0.240615 c 3.37787,-0.740199 7.92231,-0.854899 10.51217,-0.265326 5.50431,1.253031 8.5366,4.122767 9.83568,9.308406 0.34424,1.374158 0.3949,1.91669 0.40211,4.30653 0.0117,3.88554 -0.4068,5.548215 -2.17699,8.648745 -1.34775,2.360608 -5.2124,7.37373 -12.83063,16.643583 -6.15643,7.491115 -10.33476,12.982869 -11.81483,15.528711 -1.00399,1.726946 -1.6004,4.285835 -2.11634,9.080042 -0.5316,4.939823 -0.51796,4.860993 -0.98026,5.663183 -0.34574,0.59993 -0.64475,0.88198 -1.40282,1.32326 -1.7368,1.011 -4.47434,1.82199 -7.85346,2.32657 -1.35756,0.20271 -6.85418,0.35769 -8.66039,0.24418 z m -5.63222,-2.05209 c -0.0523,-0.0454 -0.18813,-0.0503 -0.30179,-0.0108 -0.12561,0.0437 -0.0883,0.076 0.0951,0.0826 0.16598,0.006 0.25898,-0.0264 0.20666,-0.0718 z m -2.87024,-0.6689 c -1.29899,-0.32749 -3.63717,-0.9729 -5.19595,-1.43423 -6.0556,-1.792193 -8.25937,-3.197069 -8.25937,-5.265249 0,-2.027818 1.80827,-3.103986 5.61347,-3.340802 l 1.70118,-0.10587 -1.8107,-0.01843 c -3.64688,-0.03712 -7.81439,0.335167 -11.454709,1.023285 -2.257329,0.426686 -2.267438,0.440092 -1.242989,1.64842 0.914788,1.07899 2.186815,1.882643 4.788958,3.025641 5.37381,2.360435 9.70379,3.714315 14.67922,4.589815 3.80363,0.6693 4.17073,0.6312 1.18089,-0.12258 z m 17.8709,-0.19176 c 1.45838,-0.27307 3.53447,-0.8414 4.80128,-1.31435 l 0.62878,-0.23475 -0.55005,-0.40001 c -0.64864,-0.47172 -3.58176,-1.791268 -5.58854,-2.514168 -6.81096,-2.453511 -14.77365,-3.787338 -22.75195,-3.811165 -2.95627,-0.0089 -3.6903,0.02909 -4.43442,0.229054 -2.00691,0.539305 -2.28082,1.955534 -0.59094,3.055481 2.02775,1.319889 10.21901,3.750698 16.04706,4.762068 3.01609,0.5234 4.21788,0.61017 7.7152,0.55699 2.49644,-0.0379 3.5667,-0.11253 4.72358,-0.32915 z m 7.38923,-2.575187 c 0.01,-0.145586 -1.677,-0.993159 -1.97622,-0.993159 -0.0588,0 0.18465,0.183356 0.54094,0.407448 0.35628,0.224099 0.76735,0.608208 0.91348,0.853568 0.24216,0.40663 0.27653,0.422 0.38821,0.17359 0.0674,-0.14989 0.12751,-0.348543 0.13359,-0.441447 z m -0.72555,-5.197154 c 0.48927,-5.015525 1.03557,-7.054581 2.62807,-9.809328 0.60858,-1.052706 1.10507,-2.071238 1.10332,-2.263411 -0.004,-0.471066 -0.60562,-1.14808 -1.59051,-1.790644 -1.06048,-0.691891 -7.41916,-3.465908 -9.92145,-4.328318 -7.13077,-2.457581 -15.12718,-3.584427 -25.39203,-3.578191 -4.1396,0.0027 -5.54715,0.242722 -6.69099,1.141871 -0.61411,0.482757 -0.69918,0.862667 -0.81517,3.641145 -0.15347,3.676177 -0.14405,3.6418 -2.850509,10.390361 -0.589367,1.469585 -1.289528,3.828877 -1.16768,3.934672 0.02981,0.02592 0.575274,-0.04529 1.212178,-0.158099 2.279401,-0.403798 4.513851,-0.63659 7.652941,-0.797296 10.45803,-0.535418 23.40663,1.663419 33.49811,5.688415 1.03919,0.414483 1.92714,0.756319 1.97321,0.759632 0.0461,0.0033 0.2083,-1.270541 0.36051,-2.830809 z m 8.53177,-15.893151 c 0.0779,-0.112788 -0.20935,0.065 -0.63833,0.395098 -0.87761,0.6753 -2.1071,1.21956 -2.86879,1.26996 -0.49783,0.03293 -0.64842,0.158087 -0.36999,0.307505 0.26553,0.142488 0.80555,1.307882 0.80555,1.738415 0,0.37582 0.19286,0.17353 1.46495,-1.536556 0.80572,-1.08314 1.52869,-2.061633 1.60661,-2.174422 z m -2.75493,-0.137479 c 0.84705,-0.375219 2.51468,-1.853215 4.10425,-3.637548 0.72933,-0.818685 1.83046,-2.015478 2.44696,-2.659547 1.5374,-1.60614 3.51581,-3.94103 5.20532,-6.143236 1.56521,-2.040196 6.63553,-9.067947 7.40138,-10.25876 1.02849,-1.599154 2.32366,-4.60765 2.97006,-6.899011 0.45188,-1.60184 0.48757,-2.79997 0.15002,-5.035794 -0.5001,-3.312547 -1.74188,-5.888338 -3.62849,-7.526471 -1.79721,-1.560497 -3.55559,-2.17316 -6.21244,-2.164567 -2.40337,0.0077 -4.51723,0.531361 -5.56312,1.37795 -0.90582,0.733213 -0.94989,0.966053 -0.96101,5.077609 l -0.0102,3.759665 -0.4512,1.162086 c -0.97141,2.501872 -1.93132,4.264087 -3.46292,6.357262 -1.94749,2.661539 -3.85945,4.279227 -5.88223,4.976883 -0.41415,0.142837 -1.12929,0.389386 -1.5892,0.547891 l -0.83619,0.288181 1.05817,-1.744394 c 1.00377,-1.654691 2.13021,-3.170647 4.81798,-6.483977 1.99578,-2.460274 3.09372,-4.577364 3.4269,-6.607792 0.2391,-1.4572 0.20027,-4.682755 -0.0698,-5.797506 -0.65877,-2.719209 -2.055,-4.302865 -4.71792,-5.351264 -3.74509,-1.474452 -9.9244,-1.437788 -14.36642,0.08525 -5.55786,1.90562 -9.00285,7.606941 -9.58446,15.861878 -0.0942,1.33679 0.1038,5.033608 0.33843,6.319315 l 0.0828,0.453881 -1.16897,-0.684918 c -2.24356,-1.314542 -2.57679,-2.48634 -2.15421,-7.575086 0.34747,-4.184198 1.86113,-8.033039 4.52629,-11.509153 1.67121,-2.179707 3.3519,-3.575693 5.95758,-4.948351 0.29352,-0.154624 0.2932,-0.162576 -0.015,-0.372223 -0.42406,-0.288478 -4.59028,-1.824574 -6.06194,-2.235048 -6.00855,-1.675919 -13.42511,-0.664251 -19.05055,2.598618 -1.59666,0.926087 -3.99923,3.055643 -4.94652,4.384401 -1.569428,2.201442 -2.856982,5.342396 -3.498458,8.534379 -0.131843,0.656057 -0.278901,2.337645 -0.326791,3.736857 -0.147422,4.307095 0.275597,6.409254 2.405004,11.951423 1.491955,3.883084 1.709525,4.686177 2.351065,8.677791 0.13897,0.864726 0.36739,1.935076 0.50759,2.378548 0.22957,0.72618 0.26928,0.773739 0.3996,0.478511 0.42232,-0.956751 0.3064,-4.294549 -0.37592,-10.824411 -0.18682,-1.787883 -0.31078,-3.275774 -0.27547,-3.306438 0.0353,-0.03064 0.42385,-0.09718 0.8634,-0.1478 l 0.79918,-0.09206 0.80666,2.851619 c 1.09082,3.856192 1.14229,4.167066 1.28671,7.773377 0.14867,3.712152 0.28047,4.215699 1.11975,4.277938 0.38261,0.02835 0.75335,-0.08006 1.29428,-0.37856 1.15946,-0.639817 1.35019,-1.141325 1.60413,-4.217967 0.11587,-1.403836 0.29037,-2.743083 0.38778,-2.976098 0.17273,-0.413181 0.19737,-0.422043 0.99663,-0.3584 0.45073,0.03591 0.8293,0.07273 0.84125,0.08188 0.0119,0.0092 0.17722,1.554666 0.36726,3.434495 0.22374,2.213207 0.42242,3.522269 0.5637,3.714043 0.12,0.162892 0.62785,0.436892 1.12854,0.608889 0.77212,0.265232 1.20929,0.313688 2.87854,0.319062 3.05535,0.0099 3.55834,-0.3195 4.01765,-2.630491 0.19006,-0.956293 0.23926,-1.97496 0.20287,-4.200742 l -0.048,-2.938319 0.47236,-0.06513 c 1.34665,-0.185774 1.2127,-0.299602 1.60602,1.364694 0.47813,2.023193 0.67705,3.817517 0.67705,6.107306 0,2.310889 0.089,2.510216 1.36111,3.047652 0.79129,0.334316 6.02415,1.333523 7.08937,1.353712 0.75723,0.01437 1.06973,-0.04408 1.41708,-0.264861 0.73087,-0.464607 1.40991,-1.474525 1.94482,-2.892509 0.71447,-1.893921 1.44779,-3.16952 2.28936,-3.982265 0.40041,-0.3867 0.7805,-0.703089 0.84465,-0.703089 0.0642,0 0.38098,0.199948 0.70408,0.44433 l 0.58746,0.444324 -0.87262,1.589678 c -1.21223,2.208359 -1.71568,3.788876 -1.64392,5.160866 0.0524,1.001037 0.0929,1.106752 0.6521,1.699281 0.88132,0.933883 2.6159,1.649465 4.02278,1.659576 0.86272,0.006 1.17606,-0.05724 1.76312,-0.356927 1.32951,-0.678675 2.49617,-1.957357 4.40752,-4.830723 1.55965,-2.344672 2.39047,-3.35374 3.50998,-4.263056 1.34689,-1.094007 1.56716,-1.150537 2.24857,-0.577078 0.29442,0.247791 0.53532,0.497816 0.53532,0.555615 0,0.165449 -1.48238,2.236459 -4.0493,5.657211 -3.99699,5.326506 -4.32807,5.939648 -3.51569,6.510832 0.46421,0.326386 1.12759,0.318293 1.8984,-0.02316 z m 11.84294,-25.404456 c -0.81227,-0.441387 -0.83666,-0.258084 0.46609,-3.503753 1.59928,-3.984492 1.67709,-5.583423 0.41867,-8.603375 -0.90628,-2.174873 -0.89833,-2.053452 -0.16224,-2.476419 0.59656,-0.342787 0.65435,-0.351116 1.01444,-0.146254 0.94597,0.538178 2.03902,2.187996 2.49694,3.768749 0.14134,0.487913 0.21126,1.447979 0.19913,2.734302 -0.0157,1.667481 -0.0842,2.197992 -0.43106,3.339768 -0.54138,1.782031 -1.61891,3.691052 -2.57733,4.56616 l -0.7518,0.686443 z m -50.153,-9.649343 c -0.9495,-1.43803 -1.07755,-1.812776 -1.08346,-3.17087 -0.0175,-4.016952 3.8485,-9.304269 7.48966,-10.243161 1.17196,-0.302194 2.17797,-0.239907 4.26913,0.264328 l 1.88944,0.455588 -1.88944,0.512901 c -1.03918,0.282086 -2.29038,0.687916 -2.78043,0.901843 -1.72888,0.754705 -3.58592,2.546941 -4.73257,4.567407 -1.15159,2.029182 -1.52742,3.145167 -1.99966,5.937705 -0.16868,0.997514 -0.33097,1.834734 -0.36062,1.860484 -0.0297,0.02572 -0.39058,-0.463054 -0.80205,-1.086225 z m 34.31354,34.610238 c -0.0104,-0.319574 0.0394,-0.780084 0.11053,-1.023358 l 0.12939,-0.442319 -0.67664,0.333721 c -0.37215,0.183547 -1.06462,0.375815 -1.53881,0.427261 l -0.86217,0.09353 1.33,0.589235 c 0.73149,0.324082 1.37422,0.592324 1.42827,0.596104 0.054,0.0033 0.0898,-0.254607 0.0794,-0.574174 z m -8.78324,-3.744761 c -0.24641,-0.424161 -0.44801,-0.928403 -0.44801,-1.120541 v -0.349341 l -0.51173,0.429745 c -0.28144,0.236363 -0.75971,0.520682 -1.06281,0.631817 -0.48774,0.178849 -0.51488,0.213577 -0.23618,0.302106 0.17321,0.05501 0.81088,0.27176 1.41708,0.48165 0.60619,0.209883 1.14435,0.384796 1.19592,0.388692 0.0515,0.0041 -0.10787,-0.339966 -0.35427,-0.764128 z m -33.80693,-1.857885 c 0.0317,-0.05494 -0.20809,-0.217464 -0.53284,-0.361227 l -0.59044,-0.261384 v 0.589308 c 0,0.964501 0.11711,1.0712 0.62474,0.569201 0.24251,-0.239826 0.46685,-0.480981 0.49854,-0.535898 z m 2.20145,-0.839879 0.41186,-0.15399 -0.35815,-0.607721 -0.35815,-0.607722 -0.16789,0.539367 c -0.0924,0.296645 -0.2854,0.684541 -0.42901,0.861978 -0.25531,0.315431 -0.25277,0.320385 0.11418,0.22235 0.20642,-0.05515 0.56064,-0.169567 0.78716,-0.254262 z m 18.00539,-0.173071 c -0.21388,-0.273669 -0.38888,-0.60841 -0.38888,-0.743864 0,-0.417466 -0.24344,-0.404385 -0.53822,0.02896 -0.1546,0.227251 -0.49674,0.527049 -0.7603,0.666222 l -0.47921,0.253042 0.5346,0.07558 c 1.02555,0.144999 1.32422,0.18057 1.67138,0.199064 l 0.34952,0.01863 z m -10.73218,-0.428285 c -0.18977,-0.129913 -0.51895,-0.504809 -0.7315,-0.83309 -0.32262,-0.498288 -0.4023,-0.553548 -0.48236,-0.334532 -0.0527,0.144296 -0.34129,0.474407 -0.64122,0.733598 -0.29992,0.259177 -0.54756,0.517383 -0.55031,0.573777 -0.003,0.05643 0.61497,0.101172 1.37272,0.0995 1.33379,-0.0033 1.36671,-0.0106 1.03267,-0.239251 z m 59.68976,-17.701595 c 0.69048,-1.320921 1.14666,-2.544322 1.43261,-3.841998 0.3037,-1.378234 0.28352,-1.960887 -0.0244,-0.703784 -0.24171,0.986889 -1.39368,4.117711 -1.84865,5.024292 -0.14152,0.281972 -0.2169,0.512679 -0.16751,0.512679 0.0494,0 0.32296,-0.446031 0.60792,-0.991189 z m -23.25759,-0.683575 c 0.73818,-0.855513 1.01039,-1.243212 0.64794,-0.922828 -0.32243,0.284996 -1.43004,1.640584 -1.34048,1.640584 0.0403,0 0.35191,-0.32299 0.69254,-0.717756 z m 24.93445,-8.806495 c -0.30421,-2.740328 -1.3776,-5.554109 -2.59908,-6.81323 -0.27693,-0.285459 -0.16305,-0.01532 0.37462,0.888655 1.28397,2.158728 1.97825,4.595594 2.18127,7.656058 0.0962,1.449518 0.12089,1.563662 0.163,0.75193 0.0274,-0.526353 -0.0266,-1.643891 -0.11981,-2.483413 z m -18.24187,-9.662202 0.67731,-0.490856 -0.866,0.198604 c -1.17203,0.26879 -1.21954,0.261398 -1.33835,-0.208297 -0.12058,-0.476681 -0.11016,-0.473753 -0.71683,-0.201345 l -0.46502,0.208797 0.37262,0.645668 c 0.20493,0.355126 0.46089,0.882323 0.56879,1.171563 l 0.19618,0.525895 0.44699,-0.679587 c 0.24585,-0.373767 0.7518,-0.900465 1.12431,-1.170442 z m -20.50012,-4.450469 c 0,-0.06703 -0.17055,-0.159065 -0.37901,-0.20449 -0.20845,-0.04543 -0.50957,-0.124055 -0.66917,-0.174718 -0.27588,-0.08759 -0.2754,-0.07752 0.01,0.204484 0.29366,0.290388 1.03841,0.415698 1.03841,0.174724 z"
         id="path3784"
         inkscape:connector-curvature="0" />
      <path
         inkscape:connector-curvature="0"
         id="path3817"
         d="m 56.499057,247.72408 c -0.493019,-0.31115 -1.078689,-0.86136 -1.301487,-1.22264 -0.222797,-0.36127 -1.493638,-6.47015 -2.824083,-13.57531 l -2.418998,-12.91845 0.05662,-9.54506 c 0.06492,-10.94616 0.10789,-11.1786 2.237413,-12.10388 1.091001,-0.47405 2.237237,-0.48898 18.372026,-0.23913 19.122651,0.29612 18.902688,0.27257 20.017741,2.14219 0.528709,0.88653 0.549085,1.39669 0.403121,10.09793 l -0.153718,9.16424 -2.904276,13.36753 c -1.61054,7.41283 -3.108914,13.6686 -3.363665,14.04342 -0.252669,0.37175 -0.870985,0.9176 -1.374046,1.213 -0.870007,0.51088 -1.523171,0.52744 -13.382443,0.33954 -11.859281,-0.18793 -12.511543,-0.22517 -13.364178,-0.76338 z m 27.89937,-15.91819 2.848945,-13.18884 0.124388,-8.27811 0.1244,-8.2781 -16.859858,-0.26716 -16.85986,-0.26716 -0.146942,8.27775 -0.146945,8.27775 2.405449,13.2721 2.40546,13.27208 11.628017,0.18425 11.628018,0.18427 2.848944,-13.18883 z m -26.669558,-1.13032 c -2.118663,-11.57297 -2.24444,-12.48623 -2.188048,-15.88713 l 0.05987,-3.6083 14.876354,0.23572 14.876343,0.23574 -0.05967,3.60831 c -0.0562,3.4009 -0.21217,4.30971 -2.71282,15.80948 l -2.653182,12.20115 -9.975474,-0.15807 -9.975487,-0.15807 z m 18.552411,6.6334 c 2.576526,-0.95784 2.806111,-1.45904 1.952689,-4.26303 -0.419308,-1.37766 -0.825706,-2.14294 -1.313515,-2.47347 -0.665265,-0.45079 -0.822418,-0.44309 -2.700793,0.12811 -2.18619,0.66506 -3.092047,1.33659 -3.108075,2.30417 -0.01953,1.17934 1.332672,4.3927 1.986658,4.72105 0.856834,0.43026 0.930296,0.42062 3.183036,-0.41683 z m -8.837253,-2.8969 c 1.295523,-0.34973 1.531346,-5.06539 0.306333,-6.12541 -0.892873,-0.77262 -4.431618,-0.76943 -5.45066,0.005 -0.696849,0.52953 -0.759091,0.74149 -0.791432,2.69533 -0.03834,2.31561 0.224774,3.11287 1.164681,3.52915 0.570324,0.25255 3.703082,0.18428 4.771078,-0.10395 z m 5.841501,-6.9486 c 2.672372,-0.59289 3.138535,-1.32571 2.501534,-3.93258 -0.753231,-3.08251 -1.221326,-3.42352 -3.90962,-2.84802 -3.330305,0.71293 -3.646919,1.18693 -2.89248,4.33031 0.70107,2.92096 1.115293,3.15698 4.300566,2.45029 z m -9.243502,-5.15231 c 0.458957,-0.20007 1.106734,-1.03939 1.780631,-2.30717 1.416838,-2.66544 1.243206,-3.16172 -1.621557,-4.63493 -2.692747,-1.38474 -3.129836,-1.23646 -4.597708,1.55966 -1.379444,2.62764 -1.21221,3.1286 1.541678,4.61805 2.302128,1.24499 1.985754,1.16161 2.896956,0.76439 z m 16.005534,-1.85728 c 2.379694,-0.53023 3.332132,-1.38325 3.094985,-2.77192 -0.372503,-2.18132 -0.988337,-3.82045 -1.553231,-4.13411 -0.660098,-0.36655 -3.454539,0.0361 -4.83266,0.69635 -1.070686,0.51295 -1.225738,1.24923 -0.725366,3.44453 0.492305,2.15989 0.60007,2.38163 1.380661,2.84039 0.701504,0.41228 0.410275,0.42059 2.635611,-0.0751 z m -1.152634,-24.10827 c 0.07898,-0.12317 1.098751,-2.69236 2.266048,-5.70936 1.167295,-3.01697 2.311831,-5.76901 2.543411,-6.11565 0.26917,-0.40294 0.699747,-0.62429 1.193681,-0.61372 0.672784,0.0145 12.078864,3.66042 12.36067,3.95115 0.137438,0.1418 -0.794123,2.80446 -1.092714,3.12332 -0.127432,0.13609 -2.243209,-0.4302 -4.777944,-1.2788 -2.502069,-0.83766 -4.72166,-1.52575 -4.932411,-1.5291 -0.210761,-0.004 -0.59382,0.53199 -0.851249,1.1896 -0.257416,0.65762 -0.987225,2.52499 -1.621778,4.14972 l -1.153747,2.95406 -2.038837,0.0514 c -1.121354,0.0282 -1.974169,-0.0494 -1.89513,-0.17258 z"
         style="fill:#030303;stroke-width:0.28321928" />
      <g
         transform="translate(113.39286,37.797619)"
         id="g851">
        <text
           xml:space="preserve"
           style="font-style:normal;font-weight:normal;font-size:40.31735229px;line-height:1.25;font-family:sans-serif;letter-spacing:0px;word-spacing:0px;fill:#000000;fill-opacity:1;stroke:none;stroke-width:1.00793386"
           x="-6.8727298"
           y="103.75623"
           id="text3792"
           transform="scale(0.99046047,1.0096314)"><tspan
             sodipodi:role="line"
             x="-6.8727264"
             y="103.75623"
             style="font-style:normal;font-variant:normal;font-weight:normal;font-stretch:normal;font-family:'Bold Oblique';-inkscape-font-specification:'Bold Oblique, ';text-align:center;text-anchor:middle;stroke-width:1.00793386"
             id="tspan3794">FROZEN</tspan><tspan
             sodipodi:role="line"
             x="-6.8727298"
             y="154.54665"
             style="font-style:normal;font-variant:normal;font-weight:normal;font-stretch:normal;font-family:'Bold Oblique';-inkscape-font-specification:'Bold Oblique, ';text-align:center;text-anchor:middle;stroke-width:1.00793386"
             id="tspan3819" /></text>
        <text
           xml:space="preserve"
           style="font-style:normal;font-weight:normal;font-size:40.31735229px;line-height:1.25;font-family:sans-serif;letter-spacing:0px;word-spacing:0px;fill:#000000;fill-opacity:1;stroke:none;stroke-width:1.00793386"
           x="-10.758816"
           y="138.29349"
           id="text3792-3"
           transform="scale(0.99046047,1.0096314)"><tspan
             sodipodi:role="line"
             x="-10.758819"
             y="138.29349"
             style="font-style:normal;font-variant:normal;font-weight:normal;font-stretch:normal;font-family:'Bold Oblique';-inkscape-font-specification:'Bold Oblique, ';text-align:center;text-anchor:middle;stroke-width:1.00793386"
             id="tspan3819-7">RANU</tspan></text>
      </g>
      <path
         inkscape:connector-curvature="0"
         id="path864"
         d="m 105.8918,247.38691 c -1.53247,-0.9078 -2.49642,-2.14866 -3.50636,-4.51359 -1.25836,-2.94662 -1.29774,-3.6918 -0.23672,-4.47985 0.71585,-0.53168 4.10273,-0.60119 29.29442,-0.60119 16.95464,0 28.85052,0.14738 29.38802,0.36408 1.54348,0.62226 1.54355,1.73777 3.4e-4,4.97187 -2.36808,4.96278 0.54538,4.49789 -28.83486,4.60107 -18.15948,0.0638 -25.5836,-0.0336 -26.10484,-0.34239 z m -1.40321,-14.71168 c -2.64962,-3.72003 -2.68015,-10.58663 -0.0694,-15.61028 2.15238,-4.1417 6.12169,-6.75768 12.25224,-8.07491 4.23578,-0.9101 12.05232,-0.61502 16.31823,0.61601 3.40695,0.98316 3.42607,0.79852 -0.31592,3.04992 -2.92654,1.7608 -5.94251,5.00495 -7.26825,7.81818 -1.97177,4.18413 -1.92818,7.64004 0.14237,11.28616 l 1.23232,2.17005 h -10.6988 -10.6988 z m 41.68106,-0.0816 c 1.868,-1.56748 4.35264,-4.654 5.68039,-7.05646 l 0.9399,-1.70066 0.67708,1.08845 c 0.3724,0.59865 0.77717,1.64734 0.89949,2.33041 0.24121,1.34684 0.31423,1.38752 3.72298,2.07435 1.70629,0.34378 2.44475,0.69449 2.85275,1.35476 0.70517,1.14122 0.33621,2.40783 -0.83949,2.88181 -0.49667,0.20025 -4.19323,0.36408 -8.21458,0.36408 h -7.31156 z m -13.82713,0.39359 c -5.90807,-2.03358 -6.42855,-9.56462 -1.01922,-14.74718 3.60272,-3.45166 10.86294,-6.32264 15.98891,-6.32264 2.20915,0 2.71361,-0.14377 4.12957,-1.17679 1.76541,-1.28798 2.5047,-2.50319 2.90732,-4.7789 0.14476,-0.81828 0.56854,-1.81154 0.94172,-2.20726 1.45524,-1.54312 4.3205,-0.36209 4.3205,1.78086 0,0.66218 0.3219,1.13207 1.04847,1.53047 1.67633,0.91922 2.05463,3.10591 0.77254,4.46542 -0.58518,0.62053 -1.21399,0.77239 -3.19814,0.77239 -2.19099,0 -2.69947,0.15237 -4.50496,1.3499 -1.905,1.26354 -2.04722,1.46307 -2.22327,3.11913 -0.39439,3.71037 -4.26945,10.20005 -7.9152,13.25588 -3.32088,2.7835 -8.10288,4.04135 -11.24824,2.95872 z m 5.96309,-25.41271 c -1.00154,-0.43004 -2.88211,-1.08322 -4.17904,-1.45153 l -2.35803,-0.66966 1.92072,-0.43679 c 1.05638,-0.24023 2.66582,-0.4368 3.57651,-0.4368 2.33556,0 4.59811,-1.72238 5.07304,-3.86191 0.47627,-2.14558 1.00895,-3.10822 1.84276,-3.33012 1.16833,-0.31095 2.68275,0.77593 2.68275,1.92536 0,0.5768 0.31987,1.04913 0.90046,1.32963 1.18585,0.57294 1.53944,2.11567 0.77019,3.36058 -0.51763,0.83771 -0.86142,0.96267 -2.6486,0.96267 -2.24392,0 -5.03228,1.36197 -5.50884,2.69079 -0.24011,0.66951 -0.32934,0.66596 -2.07192,-0.0822 z"
         style="fill:#030303;stroke-width:0.37503514" />
    </g>
  </g>
</svg>
